<?xml version="1.0" encoding="UTF-8" standalone="no"?>
<!-- Created with Inkscape (http://www.inkscape.org/) -->

<svg
   width="120mm"
   height="120.00001mm"
   viewBox="0 0 120 120.00001"
   version="1.1"
   id="svg8"
   inkscape:version="1.4 (e7c3feb100, 2024-10-09)"
   sodipodi:docname="Missing_avatar.svg"
   xmlns:inkscape="http://www.inkscape.org/namespaces/inkscape"
   xmlns:sodipodi="http://sodipodi.sourceforge.net/DTD/sodipodi-0.dtd"
   xmlns:xlink="http://www.w3.org/1999/xlink"
   xmlns="http://www.w3.org/2000/svg"
   xmlns:svg="http://www.w3.org/2000/svg"
   xmlns:rdf="http://www.w3.org/1999/02/22-rdf-syntax-ns#"
   xmlns:cc="http://creativecommons.org/ns#"
   xmlns:dc="http://purl.org/dc/elements/1.1/">
  <defs
     id="defs2">
    <linearGradient
       id="swatch2"
       inkscape:swatch="solid">
      <stop
         style="stop-color:#000000;stop-opacity:1;"
         offset="0"
         id="stop2" />
    </linearGradient>
    <linearGradient
       inkscape:collect="always"
       xlink:href="#swatch2"
       id="linearGradient2"
       x1="-228.37175"
       y1="566.69046"
       x2="55.118206"
       y2="566.69046"
       gradientUnits="userSpaceOnUse"
       gradientTransform="scale(0.26458333)" />
  </defs>
  <sodipodi:namedview
     id="base"
     pagecolor="#ffffff"
     bordercolor="#666666"
     borderopacity="1.0"
     inkscape:pageopacity="0.0"
     inkscape:pageshadow="2"
     inkscape:zoom="1.1894531"
     inkscape:cx="97.10345"
     inkscape:cy="187.90148"
     inkscape:document-units="mm"
     inkscape:current-layer="g4574"
     showgrid="false"
     fit-margin-top="0"
     fit-margin-left="0"
     fit-margin-right="0"
     fit-margin-bottom="0"
     inkscape:window-width="1920"
     inkscape:window-height="1008"
     inkscape:window-x="0"
     inkscape:window-y="0"
     inkscape:window-maximized="1"
     inkscape:showpageshadow="2"
     inkscape:pagecheckerboard="false"
     inkscape:deskcolor="#d1d1d1" />
  <metadata
     id="metadata5">
    <rdf:RDF>
      <cc:Work
         rdf:about="">
        <dc:format>image/svg+xml</dc:format>
        <dc:type
           rdf:resource="http://purl.org/dc/dcmitype/StillImage" />
      </cc:Work>
    </rdf:RDF>
  </metadata>
  <g
     inkscape:label="Layer 1"
     inkscape:groupmode="layer"
     id="layer1"
     transform="translate(-43.204007,-85.320039)">
    <g
       id="g4574"
       transform="translate(126.12414,-0.65106087)"
       style="display:inline">
      <path
         style="display:inline;opacity:0.99;fill:#ffffff;fill-opacity:1;stroke:none;stroke-width:0.261;stroke-linecap:round;stroke-linejoin:miter;stroke-miterlimit:4;stroke-dasharray:none;stroke-dashoffset:0;stroke-opacity:1"
         sodipodi:type="inkscape:offset"
         inkscape:radius="0.22322318"
         inkscape:original="M -23.267578 104.54688 A 27.465612 27.465599 0 0 0 -50.384766 132.24023 A 27.465612 27.465599 0 0 0 -39.337891 154 A 37.469016 37.468995 0 0 0 -60.388672 187.94531 A 37.469016 37.468995 0 0 0 -59.949219 193.06055 A 59.967243 59.967208 0 0 0 -56.998047 195.28516 A 34.971079 34.971058 0 0 1 -57.890625 187.92383 A 34.971079 34.971058 0 0 1 -36.902344 155.61719 A 27.465612 27.465599 0 0 0 -22.804688 159.47461 A 27.465612 27.465599 0 0 0 -8.9335938 155.61328 A 34.971079 34.971058 0 0 1 12.044922 187.04102 L 12.050781 187.62891 A 34.971079 34.971058 0 0 1 11.193359 195.20703 A 59.967243 59.967208 0 0 0 14.115234 193.11719 A 37.469016 37.468995 0 0 0 14.548828 187.62891 L 14.542969 186.99805 A 37.469016 37.468995 0 0 0 -6.4667969 153.9668 A 27.465612 27.465599 0 0 1 -6.5351562 154.01367 A 27.465612 27.465599 0 0 0 4.5449219 132.00977 L 4.5410156 131.54688 A 27.465612 27.465599 0 0 0 -23.267578 104.54688 z M -23.234375 107.04297 A 24.968738 24.968726 0 0 1 2.0449219 131.58984 L 2.0488281 132.00977 A 24.968738 24.968726 0 0 1 -22.814453 156.97852 A 24.968738 24.968726 0 0 1 -47.888672 132.21875 A 24.968738 24.968726 0 0 1 -23.234375 107.04297 z "
         xlink:href="#path4500"
         id="path3"
         inkscape:href="#path4500"
         d="m -23.269531,104.32422 c -3.614298,0.0457 -7.219769,0.80669 -10.542969,2.22851 -3.3232,1.42183 -6.361734,3.50332 -8.890625,6.08594 -2.528891,2.58263 -4.544834,5.66523 -5.896484,9.01758 -1.351651,3.35235 -2.038075,6.97148 -2.007813,10.58594 0.04006,4.24856 1.074724,8.48494 2.998047,12.27343 1.871234,3.6859 4.592767,6.92882 7.875,9.44141 -6.219,3.10242 -11.555811,7.95273 -15.21875,13.85938 -3.722345,6.00244 -5.708058,13.06809 -5.658203,20.13086 a 0.2232455,0.2232455 0 0 0 0,0.002 c 0.02952,1.72265 0.176675,3.44404 0.441406,5.14648 a 0.2232455,0.2232455 0 0 0 0.08008,0.13867 c 0.964135,0.7745 1.952879,1.5188 2.962891,2.23243 a 0.2232455,0.2232455 0 0 0 0.345703,-0.23243 c -0.494274,-2.14103 0.429268,1.91966 -0.05078,-0.2246 -0.48005,-2.14427 0.416975,1.92279 -0.04883,-0.22461 -0.465804,-2.14741 0.402709,1.92389 -0.04883,-0.22657 -0.451538,-2.15045 0.390376,1.9288 -0.04687,-0.22461 -0.437252,-2.1534 0.378024,1.9297 -0.04492,-0.22656 -0.422946,-2.15626 0.365653,1.93246 -0.04297,-0.22656 -0.408622,-2.15902 0.351311,1.93512 -0.04297,-0.22656 -0.39428,-2.16169 0.338905,1.93573 -0.04102,-0.22852 -0.379921,-2.16425 0.326482,1.94017 -0.03906,-0.22656 -0.365545,-2.16673 0.314043,1.94254 -0.03711,-0.22656 -0.351153,-2.16911 0.301588,1.94287 -0.03516,-0.22852 -0.336744,-2.17139 0.287166,1.94506 -0.03516,-0.22852 -0.322322,-2.17357 0.274682,1.94716 -0.0332,-0.22851 -0.307885,-2.17567 0.262185,1.94915 -0.03125,-0.22852 -0.293435,-2.17766 0.247722,1.95105 -0.03125,-0.22851 -0.278972,-2.17957 0.237152,1.95285 -0.02734,-0.22852 -0.264496,-2.18137 0.222665,1.95456 -0.02734,-0.22851 -0.250009,-2.18308 0.210119,1.95422 -0.02539,-0.23047 -0.235511,-2.18469 0.197564,1.95769 -0.02344,-0.22852 -0.221002,-2.1862 0.183047,1.95716 -0.02344,-0.23047 -0.206484,-2.18762 0.170472,1.96043 -0.02148,-0.22851 -0.191957,-2.18895 0.159842,1.9597 -0.01758,-0.23047 -0.17742,-2.19017 0.143346,1.96083 -0.01953,-0.23047 -0.162876,-2.1913 0.132701,1.96187 -0.01563,-0.23047 -0.148326,-2.19233 0.118143,1.9628 -0.01563,-0.23047 -0.133768,-2.19327 0.107486,1.9656 -0.01172,-0.22851 -0.119204,-2.19411 0.09292,1.96438 -0.01172,-0.23047 -0.104637,-2.19486 0.07834,1.96503 -0.01172,-0.23047 -0.09006,-2.1955 0.06767,1.96558 -0.0078,-0.23047 -0.07549,-2.19605 0.05309,1.96604 -0.0078,-0.23047 -0.0609,-2.1965 0.04046,1.96444 -0.0059,-0.23242 -0.04593,-2.17825 0.0258,1.84403 -0.0039,-0.22852 v -0.002 c -0.0066,-0.90993 -0.0082,0.2922 0.002,-0.63086 0.0102,-0.92591 -0.01536,0.29277 0.01172,-0.63281 0.02708,-0.92558 -0.01855,0.29212 0.02539,-0.63281 0.04394,-0.92493 -0.02564,0.29116 0.03516,-0.63282 0.0608,-0.92397 -0.03075,0.28991 0.04687,-0.63281 0.07763,-0.92271 -0.03389,0.29029 0.06055,-0.63086 0.09444,-0.92114 -0.0409,0.29037 0.07031,-0.6289 0.111212,-0.91927 -0.04787,0.28818 0.08008,-0.62891 0.12795,-0.91709 -0.0509,0.28961 0.09375,-0.625 0.144646,-0.91461 -0.05583,0.28682 0.105468,-0.625 0.161295,-0.91182 -0.06265,0.28568 0.115235,-0.62305 0.177889,-0.90872 -0.06747,0.28424 0.126953,-0.62109 0.194424,-0.90533 -0.07222,0.28445 0.138672,-0.61719 0.210895,-0.90163 -0.0769,0.28241 0.15039,-0.61523 0.227296,-0.89765 -0.08151,0.28007 0.16211,-0.61328 0.24362,-0.89335 -0.08799,0.27938 0.171875,-0.60938 0.259864,-0.88876 -0.09243,0.27841 0.183593,-0.60547 0.276023,-0.88387 -0.09873,0.27519 0.19336,-0.60351 0.292088,-0.8787 -0.10298,0.27362 0.205078,-0.59961 0.308057,-0.87323 -0.107127,0.27176 0.216797,-0.59571 0.323924,-0.86746 -0.113121,0.26963 0.226562,-0.59179 0.339683,-0.86142 -0.117048,0.26914 0.238282,-0.58594 0.355329,-0.85508 -0.122811,0.26448 0.248046,-0.58398 0.370858,-0.84847 -0.126496,0.26539 0.259766,-0.57618 0.386262,-0.84156 -0.132007,0.26017 0.269531,-0.57421 0.401539,-0.83439 -0.137384,0.25856 0.279297,-0.56836 0.416681,-0.82693 -0.142623,0.25669 0.289063,-0.5625 0.431685,-0.81919 -0.145766,0.25259 0.300781,-0.5586 0.446547,-0.81118 -0.150713,0.25213 0.310547,-0.55078 0.461259,-0.80291 -0.155506,0.2475 0.320312,-0.54687 0.475819,-0.79437 -0.158188,0.24454 0.332032,-0.54102 0.490219,-0.78556 -0.164615,0.2433 0.339843,-0.5332 0.504459,-0.7765 -0.168919,0.23787 0.34961,-0.5293 0.518529,-0.76717 -0.173053,0.23611 0.359375,-0.52148 0.532427,-0.7576 -0.177009,0.23409 0.36914,-0.51368 0.546149,-0.74776 -0.182735,0.22792 0.376953,-0.50976 0.559689,-0.73768 -0.18437,0.22736 0.388672,-0.5 0.573043,-0.72736 -0.189722,0.22265 0.396485,-0.49414 0.586206,-0.71679 -0.194878,0.21966 0.404297,-0.48633 0.599174,-0.70599 -0.195929,0.21448 0.416015,-0.48047 0.611945,-0.69495 -0.202636,0.21297 0.421875,-0.4707 0.624511,-0.68368 -0.205229,0.20929 0.431641,-0.46289 0.636869,-0.67218 -0.209564,0.20342 0.439453,-0.45703 0.649017,-0.66046 -0.211729,0.20125 0.449219,-0.44727 0.660948,-0.64852 -0.217582,0.19691 0.455078,-0.43945 0.67266,-0.63636 -0.219305,0.19235 0.464844,-0.43164 0.684148,-0.624 -0.224706,0.18954 0.470703,-0.42188 0.695409,-0.61142 -0.22597,0.18458 0.480468,-0.41406 0.706439,-0.59864 -0.230905,0.17941 0.486329,-0.40625 0.717233,-0.58566 -0.23365,0.17796 0.49414,-0.39453 0.727791,-0.57249 -0.236152,0.17046 0.501953,-0.38867 0.738106,-0.55913 -0.240362,0.16863 0.507813,-0.37696 0.748175,-0.54558 -0.242371,0.16272 0.515625,-0.36914 0.757996,-0.53185 -0.246081,0.15858 0.521484,-0.35937 0.767565,-0.51795 -0.247582,0.15621 0.529297,-0.34766 0.776879,-0.50387 -0.252732,0.14978 0.533203,-0.33984 0.785935,-0.48963 -0.253714,0.14514 0.541016,-0.33008 0.794729,-0.47522 -0.256385,0.14034 0.546875,-0.32031 0.80326,-0.46066 -0.258789,0.13538 0.552734,-0.31055 0.811524,-0.44593 -0.260924,0.13029 0.558594,-0.30078 0.819517,-0.43107 -0.264739,0.12699 0.5625,-0.28906 0.827239,-0.41606 -0.266326,0.12161 0.568359,-0.2793 0.834686,-0.40091 -0.267636,0.11609 0.574219,-0.26953 0.699964,-0.32063 0.231941,-0.10883 0.480469,-0.21485 4.249912,2.50142 9.173964,3.84306 14.105469,3.83204 a 0.2232455,0.2232455 0 0 0 0.002,0 c 4.855682,-0.0305 9.693081,-1.37163 13.8769527,-3.83594 0.2373599,0.10117 -0.2317299,-0.11169 0.46875,0.20898 0.8460973,0.38733 -0.2785079,-0.13868 0.5605469,0.26367 0.8390548,0.40236 -0.2751049,-0.14381 0.5566407,0.27344 0.8317455,0.41726 -0.2733905,-0.15077 0.5507812,0.28125 0.8241717,0.43203 -0.2694606,-0.15368 0.546875,0.29297 0.8163356,0.44665 -0.2672243,-0.15841 0.5410156,0.30273 0.80824,0.46115 -0.2647309,-0.16298 0.5351563,0.3125 0.7998871,0.47549 -0.2600299,-0.16936 0.53125,0.32032 0.7912799,0.48967 -0.2589835,-0.17168 0.5234375,0.33203 0.782421,0.50371 -0.2557351,-0.17774 0.5175781,0.33984 0.7733132,0.51758 -0.2522406,-0.18168 0.5117187,0.34961 0.7639594,0.53129 -0.2485031,-0.18741 0.5058594,0.35742 0.7543626,0.54483 -0.2445257,-0.19101 0.5,0.36719 0.7445258,0.5582 -0.2422646,-0.19443 0.4921875,0.37695 0.73445217,0.57139 -0.2378168,-0.19963 0.4863282,0.38477 0.72414486,0.5844 -0.2350918,-0.20464 0.47851558,0.39258 0.71360732,0.59722 -0.23213963,-0.20751 0.47070312,0.40234 0.70284275,0.60985 -0.22701086,-0.21213 0.46484375,0.41016 0.69185465,0.62228 -0.22361513,-0.21656 0.45703125,0.41797 0.6806464,0.63452 -0.2200029,-0.21883 0.4492187,0.42773 0.6692217,0.64657 -0.2142246,-0.2248 0.4433594,0.43359 0.6575841,0.6584 -0.2121435,-0.22666 0.4335938,0.44336 0.6457372,0.67002 -0.2079038,-0.23221 0.4257812,0.44922 0.6336851,0.68143 -0.2034625,-0.23364 0.4179688,0.45899 0.6214313,0.69262 -0.1988237,-0.23875 0.4101562,0.46484 0.6089799,0.7036 -0.1959441,-0.24364 0.4003907,0.4707 0.5963347,0.71435 -0.1909218,-0.24439 0.3925781,0.48047 0.5834999,0.72487 -0.1857138,-0.24883 0.3847656,0.48633 0.5704794,0.73516 -0.1822775,-0.25303 0.375,0.49219 0.5572775,0.74521 -0.1767108,-0.25504 0.3671875,0.5 0.5438983,0.75503 -0.1729243,-0.25876 0.3574219,0.50586 0.5303461,0.76461 -0.1670159,-0.26224 0.3496093,0.51172 0.5166253,0.77395 -0.1628962,-0.26351 0.3398438,0.51953 0.50274,0.78304 -0.1586168,-0.26845 0.3300781,0.52344 0.4886949,0.79188 -0.1541818,-0.26923 0.3203125,0.53125 0.4744943,0.80047 -0.1495959,-0.27366 0.3105469,0.53515 0.4601428,0.80881 -0.1429105,-0.27587 0.3027344,0.54102 0.4456448,0.81688 -0.1399896,-0.27783 0.2910156,0.54687 0.4310052,0.82471 -0.1330253,-0.27952 0.2832031,0.55274 0.4162285,0.83226 -0.1298349,-0.28291 0.2714844,0.55664 0.4013193,0.83955 -0.1245637,-0.28603 0.2617188,0.56054 0.3862824,0.84658 -0.1191697,-0.28692 0.2519531,0.56641 0.3711227,0.85333 -0.1136575,-0.2895 0.2421875,0.57031 0.355845,0.85982 -0.1080322,-0.28985 0.2324219,0.57617 0.340454,0.86603 -0.1022986,-0.29383 0.2226562,0.57813 0.3249548,0.87196 -0.098415,-0.29558 0.2109375,0.58203 0.3093525,0.87761 -0.094432,-0.29705 0.1992185,0.58594 0.293651,0.88299 -0.08645,-0.29824 0.191407,0.58984 0.277856,0.88809 -0.08229,-0.29915 0.179687,0.59375 0.261974,0.8929 -0.07609,-0.30173 0.169922,0.59571 0.246008,0.89743 -0.07176,-0.30207 0.158203,0.5996 0.229964,0.90168 -0.06736,-0.30407 0.146484,0.60157 0.213846,0.90563 -0.05899,-0.30384 0.138672,0.60547 0.197661,0.9093 -0.05641,-0.30722 0.125,0.60546 0.181412,0.91269 -0.04987,-0.30639 0.115235,0.60938 0.165105,0.91577 -0.04328,-0.30725 0.105468,0.61133 0.148748,0.91857 -0.03859,-0.30975 0.09375,0.61133 0.132342,0.92108 -0.03386,-0.30806 0.08203,0.61523 0.115893,0.92329 -0.02714,-0.30998 0.07226,0.61523 0.09941,0.92522 -0.02235,-0.30965 0.06055,0.61719 0.08289,0.92684 -0.01752,-0.31098 0.04883,0.61719 0.06635,0.92817 -0.01072,-0.31007 0.03906,0.61914 0.04978,0.92921 -0.0059,-0.31081 0.02734,0.61914 0.0332,0.92995 9.63e-4,-0.31125 0.01758,0.61914 l 0.0059,0.58594 c -0.0068,2.0738 0.02033,-1.94252 -0.002,0.23437 -0.02247,2.19504 0.03355,-1.95654 -0.0039,0.23829 -0.03746,2.19482 0.04854,-1.9582 -0.0039,0.23632 -0.05244,2.19453 0.05962,-1.95778 -0.0078,0.23633 -0.06743,2.19411 0.0746,-1.95532 -0.0078,0.23828 -0.08241,2.1936 0.08762,-1.95666 -0.0098,0.23633 -0.09739,2.19299 0.100641,-1.95399 -0.01172,0.23828 -0.11236,2.19227 0.115609,-1.95512 -0.01172,0.23633 -0.127327,2.19145 0.126664,-1.9542 -0.01563,0.23633 -0.142289,2.19053 0.141619,-1.95318 -0.01563,0.23633 -0.157244,2.18951 0.154613,-1.95011 -0.01758,0.23828 -0.172191,2.18838 0.1676,-1.95083 -0.01953,0.23633 -0.187131,2.18715 0.180577,-1.9495 -0.02148,0.23632 -0.202062,2.18583 0.195498,-1.94807 -0.02149,0.23633 -0.216983,2.1844 0.206503,-1.94849 -0.02539,0.23438 -0.231894,2.18286 0.221403,-1.9449 -0.02539,0.23633 -0.246794,2.18123 0.234339,-1.94317 -0.02734,0.23632 -0.261683,2.1795 0.247263,-1.94328 -0.0293,0.23438 -0.276559,2.17766 0.260173,-1.93939 -0.03125,0.23633 -0.291423,2.17571 0.275024,-1.9393 -0.03125,0.23437 -0.306273,2.17368 0.285953,-1.93716 -0.03516,0.23438 -0.321109,2.17153 0.300774,-1.93297 -0.03516,0.23632 -0.33593,2.1693 0.313626,-1.93257 -0.03711,0.23438 -0.350735,2.16695 0.326462,-1.93208 -0.03906,0.23242 -0.365524,2.1645 0.341233,-1.92758 -0.03906,0.23438 -0.380296,2.16195 0.352082,-1.92494 -0.04297,0.23437 -0.39505,2.15931 0.366816,-1.92414 -0.04297,0.23242 -0.409786,2.15656 0.37958,-1.92129 -0.04492,0.23243 -0.424502,2.15371 0.392324,-1.91639 -0.04687,0.23437 -0.439199,2.15076 0.405047,-1.91724 -0.04883,0.23047 -0.453875,2.14771 0.419702,-1.91214 -0.04883,0.23242 -0.468531,2.14457 0.432382,-1.90889 -0.05078,0.23242 a 0.2232455,0.2232455 0 0 0 0.341796,0.23438 c 0.998238,-0.66971 1.975296,-1.36938 2.931641,-2.09766 a 0.2232455,0.2232455 0 0 0 0.08594,-0.14453 c 0.280453,-1.82632 0.425739,-3.67183 0.435546,-5.51953 a 0.2232455,0.2232455 0 0 0 0,-0.002 0.2232455,0.2232455 0 0 0 0,-0.002 l -0.0059,-0.63086 a 0.2232455,0.2232455 0 0 0 0,-0.002 C 14.649197,180.08927 12.589125,173.2274 8.8828125,167.40039 5.2355877,161.66628 5.7632877e-5,156.96062 -6.078125,153.92187 c 3.2927566,-2.52799 6.02156606,-5.79016 7.8886719,-9.49804 1.930534,-3.83384 2.9509889,-8.1216 2.9570312,-12.41406 a 0.2232455,0.2232455 0 0 0 0,-0.002 l -0.00391,-0.46289 a 0.2232455,0.2232455 0 0 0 0,-0.002 c -0.060988,-3.61416 -0.8375323,-7.21402 -2.2734375,-10.53125 -1.4359053,-3.31723 -3.5296637,-6.34921 -6.1230469,-8.86719 -2.5933832,-2.51797 -5.684824,-4.52 -9.0429685,-5.85742 -3.358145,-1.33742 -6.979368,-2.00854 -10.59375,-1.96289 z m 0.03711,2.94141 c 1.126553,0.008 -0.114267,-0.0441 1.212891,0.0156 1.128363,0.0619 -0.138301,-0.0488 1.208984,0.0723 1.121246,0.119 -0.126818,-0.052 1.203125,0.13281 1.110501,0.17261 -0.10503,-0.0554 1.195313,0.1914 1.100359,0.22648 -0.09495,-0.0594 1.185547,0.25 1.092338,0.28044 -0.110971,-0.0742 1.171875,0.3086 1.078874,0.33171 -0.111404,-0.0807 1.156249,0.36328 1.058331,0.38569 -0.101531,-0.085 1.134766,0.42187 1.039971,0.43564 -0.09804,-0.0872 1.115234,0.47461 1.015665,0.48711 -0.09747,-0.0941 1.087891,0.5293 0.990111,0.53551 -0.08342,-0.092 1.0625,0.58203 0.9667247,0.58665 -0.0955,-0.10791 1.0332032,0.63477 0.9338704,0.63114 -0.080608,-0.10457 1,0.68359 0.9019928,0.67544 -0.078504,-0.11072 0.9648438,0.73047 0.8700506,0.71981 -0.076245,-0.11707 0.9296875,0.77734 0.83029,0.76024 -0.061644,-0.11203 0.8886719,0.82227 0.7923654,0.79936 -0.052185,-0.11348 0.8476562,0.86523 0.7548238,0.83932 -0.053852,-0.12727 0.8046875,0.90625 0.7119165,0.8722 -0.040309,-0.12059 0.7597656,0.94336 0.6690831,0.90592 -0.037042,-0.12625 0.7128907,0.97852 0.6214355,0.9385 -0.030502,-0.11809 0.6640625,1.01367 0.5747887,0.9684 -0.026423,-0.12277 0.6132812,1.04492 0.52787459,0.99696 -0.021256,-0.1339 0.5605469,1.07422 0.4785217,1.01873 -0.009379,-0.12534 0.5078125,1.09961 0.42939859,1.04272 -0.008616,-0.13283 0.45507813,1.12305 0.37525687,1.06215 -0.003266,-0.13742 0.39648437,1.14258 0.3245137,1.07569 0.0127371,-0.11541 0.34179688,1.16211 0.27147702,1.09211 0.0145303,-0.12119 0.28515622,1.17773 0.2172967,1.10421 0.019849,-0.12475 0.2265625,1.18945 0.1629961,1.11634 0.025455,-0.1284 0.1679688,1.20117 0.1085693,1.12119 0.031361,-0.13118 0.109375,1.20508 0.053987,1.12555 0.037647,-0.1226 0.050781,1.21094 0.013095,0.30801 -0.018867,1.50409 -0.00391,1.02148 -0.047858,1.12782 0.049146,-0.12708 -0.058594,1.21094 -0.1049209,1.12101 0.052068,-0.11646 -0.1191406,1.20508 -0.1595743,1.1148 0.058367,-0.11763 -0.1777344,1.19727 -0.2116898,1.10918 0.067705,-0.12052 -0.234375,1.18945 -0.26922475,1.09515 0.071773,-0.11928 -0.29492185,1.17383 -0.31951496,1.08126 0.0755347,-0.10851 -0.34960938,1.16015 -0.37450103,1.06426 0.0825665,-0.10879 -0.40820312,1.14063 -0.423249,1.04217 0.08152,-0.0946 -0.4609375,1.11914 -0.47607308,1.0227 0.0925988,-0.0979 -0.51757813,1.0957 -0.52415142,0.99992 0.10020219,-0.0915 -0.57031252,1.07031 -0.5722022,0.97202 0.1071867,-0.0907 -0.6210937,1.03907 -0.6183478,0.9424 0.1083933,-0.0852 -0.6699219,1.00781 -0.664365,0.90831 0.099132,-0.0668 -0.7207031,0.97461 -0.7077583,0.87698 0.1134041,-0.0659 -0.7675781,0.9375 -0.7502852,0.84418 0.1241988,-0.0713 -0.8105469,0.90039 -0.792496,0.80346 0.1240122,-0.0641 -0.8554688,0.85742 -0.8280641,0.76546 0.1252717,-0.0545 -0.8945312,0.81641 -0.8663579,0.72112 0.1238404,-0.047 -0.9355469,0.76953 -0.8984026,0.67981 0.1249517,-0.0379 -0.9707031,0.72461 -0.933781,0.63513 0.1350776,-0.0396 -1.0058594,0.67578 -0.96401,0.58838 0.1406674,-0.0352 -1.037109,0.625 -0.99069,0.54015 0.135975,-0.0268 -1.066407,0.57422 -1.015957,0.49185 0.137541,-0.0178 -1.09375,0.52148 -1.038995,0.44134 0.142473,-0.0128 -1.117187,0.4668 -1.058152,0.3897 0.136229,-0.005 -1.138672,0.41211 -1.072603,0.33634 0.11662,0.008 -1.158203,0.35547 -1.088908,0.28328 0.1221,0.0104 -1.173828,0.29883 -1.104901,0.22962 0.136855,0.0142 -1.1875,0.24023 -1.112838,0.17476 0.128496,0.0214 -1.197266,0.18164 -1.120812,0.12309 0.1304,0.0298 -1.205078,0.125 -1.121371,0.0656 0.110772,0.0339 -1.208984,0.0645 -1.130757,0.0103 0.136647,0.0427 -1.212891,0.004 -1.123379,-0.0431 0.114416,0.0452 -1.208984,-0.0527 -1.124569,-0.10077 0.126674,0.0498 -1.207032,-0.11329 -1.11884,-0.15649 0.129251,0.0595 -1.199218,-0.17382 -1.109148,-0.20805 0.1205,0.0673 -1.189453,-0.23047 -1.094638,-0.26104 0.10792,0.0685 -1.175782,-0.28711 -1.082301,-0.31708 0.111525,0.0789 -1.160156,-0.34766 -1.063957,-0.36604 0.09804,0.0785 -1.142578,-0.40039 -1.046994,-0.42099 0.09845,0.0854 -1.123047,-0.45898 -1.027447,-0.47162 0.111467,0.10003 -1.097656,-0.51172 -0.998431,-0.51882 0.08747,0.0947 -1.070313,-0.56446 -0.972608,-0.56855 0.08269,0.0962 -1.042968,-0.61718 -0.944479,-0.61639 0.08126,0.10255 -1.011719,-0.66797 -0.912618,-0.66065 0.0792,0.10863 -0.976563,-0.71485 -0.877394,-0.70328 0.05743,0.10015 -0.941406,-0.76367 -0.841979,-0.74382 0.05525,0.10552 -0.902344,-0.80664 -0.805002,-0.78567 0.04873,0.10434 -0.863281,-0.85156 -0.766123,-0.82699 0.05672,0.12182 -0.818359,-0.89258 -0.726744,-0.86417 0.05331,0.12743 -0.775391,-0.93164 -0.680241,-0.89696 0.0395,0.12048 -0.726562,-0.96875 -0.640469,-0.92843 0.03472,0.13011 -0.681641,-1.00195 -0.590564,-0.96057 0.03162,0.13078 -0.628906,-1.03516 -0.545644,-0.98778 0.02192,0.13828 -0.578125,-1.06445 -0.498121,-1.01713 0.0259,0.15084 -0.527344,-1.0918 -0.443843,-1.03519 0.01009,0.1316 -0.470703,-1.11523 -0.392343,-1.05432 0.0024,0.12525 -0.416016,-1.13672 -0.341821,-1.07346 -0.0026,0.12905 -0.361328,-1.15625 -0.286908,-1.08889 -0.01,0.12211 -0.302734,-1.17383 -0.235368,-1.10016 -0.01805,0.12351 -0.246094,-1.18555 -0.181109,-1.11228 -0.02356,0.12715 -0.1875,-1.19726 -0.126724,-1.12077 -0.02936,0.13036 -0.128906,-1.20508 -0.06945,-1.12585 -0.03305,0.13368 -0.06836,-1.20898 -0.01766,-1.12633 -0.04164,0.1241 -0.01172,-1.21094 0.04058,-1.12774 -0.04831,0.12702 0.05078,-1.21094 0.094,-1.12075 -0.05082,0.11591 0.107422,-1.20508 0.14958,-1.11877 -0.06015,0.11921 0.167968,-1.20117 0.203365,-1.10833 -0.06355,0.11824 0.22461,-1.18945 0.259335,-1.09943 -0.07387,0.12169 0.285156,-1.17774 0.308753,-1.08187 -0.07524,0.10042 0.339844,-1.16211 0.364782,-1.06878 -0.08516,0.1119 0.398437,-1.14453 0.415052,-1.04806 -0.08879,0.10156 0.453125,-1.12304 0.46502,-1.02606 -0.09105,0.0976 0.50586,-1.09961 0.515567,-0.99928 -0.08479,0.0801 0.560547,-1.07422 0.563458,-0.97306 -0.09184,0.074 0.613281,-1.04492 0.611206,-0.94505 -0.09796,0.0729 0.664062,-1.01368 0.656943,-0.91616 -0.108068,0.0794 0.710938,-0.98046 0.701286,-0.88425 -0.114331,0.0772 0.757812,-0.94532 0.744189,-0.84614 -0.116624,0.0672 0.804688,-0.90429 0.783308,-0.8117 -0.11809,0.0577 0.847656,-0.86719 0.823261,-0.76968 -0.12122,0.057 0.888672,-0.82227 0.858888,-0.72823 -0.122612,0.0475 0.927734,-0.77734 0.894658,-0.687 -0.124367,0.0386 0.966797,-0.73242 0.923262,-0.64228 -0.125593,0.0297 0.998047,-0.6836 0.955773,-0.59472 -0.117218,0.0235 1.033203,-0.63476 0.982056,-0.5481 -0.121546,0.0195 1.060547,-0.58399 1.008771,-0.49667 -0.116925,0.0119 1.089844,-0.52929 1.030322,-0.44869 -0.117865,0.004 1.113281,-0.47657 1.053218,-0.39838 -0.122399,-5.6e-4 1.136719,-0.42187 1.073667,-0.3463 -0.139778,2e-4 1.154297,-0.36524 1.088281,-0.29381 -0.130695,-0.0105 1.171875,-0.30859 1.104585,-0.24013 -0.146302,-0.0145 1.185547,-0.25 1.113023,-0.18606 -0.139236,-0.0191 1.195312,-0.19336 1.117212,-0.1282 -0.119991,-0.0244 1.203125,-0.13281 1.121097,-0.0757 -0.110273,-0.0356 1.208984,-0.0742 0.100866,-0.004 0.504512,-0.0149 0.605469,-0.0156 z" />
      <path
         id="path4500"
         d="m -23.266797,104.54607 a 27.465612,27.465599 0 0 0 -27.117725,27.69444 27.465612,27.465599 0 0 0 11.047389,21.75887 37.469016,37.468995 0 0 0 -21.050911,33.94522 37.469016,37.468995 0 0 0 0.438732,5.11648 59.967243,59.967208 0 0 0 2.950726,2.22312 34.971079,34.971058 0 0 1 -0.891421,-7.36079 34.971079,34.971058 0 0 1 20.986834,-32.30655 27.465612,27.465599 0 0 0 14.098364,3.85764 27.465612,27.465599 0 0 0 13.872021,-3.86178 34.971079,34.971058 0 0 1 20.978564,31.42857 l 0.0052,0.58808 a 34.971079,34.971058 0 0 1 -0.857829,7.57783 59.967243,59.967208 0 0 0 2.921785,-2.08927 37.469016,37.468995 0 0 0 0.434082,-5.48856 l -0.0052,-0.63045 a 37.469016,37.468995 0 0 0 -21.0111203,-33.03158 27.465612,27.465599 0 0 1 -0.06873,0.0465 27.465612,27.465599 0 0 0 11.0814942,-22.00434 l -0.00362,-0.4625 A 27.465612,27.465599 0 0 0 -23.266797,104.54607 Z m 0.03152,2.49649 a 24.968738,24.968726 0 0 1 25.2801104,24.54682 l 0.00362,0.42013 a 24.968738,24.968726 0 0 1 -24.8635984,24.9685 24.968738,24.968726 0 0 1 -25.072887,-24.75869 24.968738,24.968726 0 0 1 24.652758,-25.17676 z"
         style="display:inline;opacity:0.99;fill:#000000;fill-opacity:1;stroke:url(#linearGradient2);stroke-width:0.0689999;stroke-linecap:round;stroke-linejoin:miter;stroke-miterlimit:4;stroke-dasharray:none;stroke-dashoffset:0;stroke-opacity:1"
         inkscape:connector-curvature="0" />
    </g>
  </g>
</svg>
