<?xml version="1.0" encoding="UTF-8" standalone="no"?>
<!-- Created with Inkscape (http://www.inkscape.org/) -->

<svg
   width="565.59448mm"
   height="105.43795mm"
   viewBox="0 0 565.59447 105.43795"
   version="1.1"
   id="svg1"
   xml:space="preserve"
   inkscape:version="1.3.2 (091e20ef0f, 2023-11-25, custom)"
   sodipodi:docname="retromeet.svg"
   inkscape:export-filename="retromeet_long.png"
   inkscape:export-xdpi="20.762102"
   inkscape:export-ydpi="20.762102"
   xmlns:inkscape="http://www.inkscape.org/namespaces/inkscape"
   xmlns:sodipodi="http://sodipodi.sourceforge.net/DTD/sodipodi-0.dtd"
   xmlns="http://www.w3.org/2000/svg"
   xmlns:svg="http://www.w3.org/2000/svg"><sodipodi:namedview
     id="namedview1"
     pagecolor="#ffffff"
     bordercolor="#000000"
     borderopacity="0.25"
     inkscape:showpageshadow="2"
     inkscape:pageopacity="0.0"
     inkscape:pagecheckerboard="0"
     inkscape:deskcolor="#d1d1d1"
     inkscape:document-units="mm"
     inkscape:zoom="0.35705275"
     inkscape:cx="1047.4643"
     inkscape:cy="579.74626"
     inkscape:window-width="1536"
     inkscape:window-height="792"
     inkscape:window-x="0"
     inkscape:window-y="0"
     inkscape:window-maximized="1"
     inkscape:current-layer="layer1" /><defs
     id="defs1" /><g
     inkscape:label="Layer 1"
     inkscape:groupmode="layer"
     id="layer1"
     transform="translate(-24.714392,-76.321996)"><path
       style="display:inline;fill:#000000"
       d="m 135.89721,181.67318 c -6.35428,-0.9843 -11.43021,-2.45162 -15.90634,-4.59813 -7.31522,-3.50796 -20.062917,-13.00682 -26.768941,-19.94667 -1.061199,-1.0982 -2.489949,-2.44646 -3.174999,-2.99613 -0.685051,-0.54966 -3.448203,-3.09448 -6.140338,-5.65514 -2.692136,-2.56066 -6.74026,-6.30954 -8.995833,-8.33085 -9.335111,-8.36558 -13.900293,-13.40397 -16.108321,-17.77805 -3.00087,-5.94469 -4.064785,-11.47842 -3.489907,-18.15202 0.674531,-7.830473 2.710198,-12.474034 7.824334,-17.848116 6.041535,-6.348619 13.00268,-9.639677 21.166602,-10.007047 5.592243,-0.251647 9.620709,0.684959 15.67536,3.644473 l 3.239943,1.583686 0.8611,-0.636373 c 1.35559,-1.001814 6.56969,-3.049556 9.53561,-3.744932 3.6353,-0.852317 6.17831,-1.034487 9.43635,-0.675981 9.21151,1.01361 17.6449,5.607515 22.83132,12.436856 3.28408,4.324394 5.75572,11.995704 5.75415,17.859404 -5.8e-4,2.14283 -0.61037,6.4898 -1.20627,8.59896 -0.93872,3.32255 -3.48969,8.48081 -5.28285,10.68235 -3.61697,4.44072 -6.10287,7.00675 -12.84759,13.26173 -2.82404,2.61899 -7.1667,6.7601 -9.65035,9.20248 l -4.51573,4.44068 -1.10667,-1.31245 c -1.01123,-1.19925 -1.41036,-2.14355 -0.90604,-2.14355 0.42131,0 14.3982,-13.07337 20.6724,-19.33607 4.42809,-4.41998 6.17741,-6.72723 8.12646,-10.71835 1.97614,-4.0466 3.1935,-9.93974 2.90791,-14.07699 -0.62892,-9.11076 -4.37864,-15.937726 -11.35284,-20.669703 -1.85259,-1.256971 -6.35582,-3.327481 -8.64831,-3.976339 -2.76068,-0.781378 -7.47139,-1.148469 -10.4756,-0.816331 -4.64011,0.513001 -9.45017,2.279558 -12.53075,4.602086 -1.53728,1.158994 -1.76135,1.25222 -2.24896,0.935674 -3.420276,-2.220396 -6.40243,-3.761067 -8.959129,-4.628559 -2.849251,-0.966755 -3.118564,-1.008162 -7.228433,-1.111363 -4.733814,-0.118869 -6.394332,0.158833 -10.547748,1.763987 -3.865755,1.493983 -6.0624,2.98661 -9.541522,6.483495 -2.928397,2.943349 -3.315694,3.451676 -4.697645,6.16565 -0.84855,1.666444 -1.820609,4.0923 -2.226431,5.556249 -1.702303,6.140864 -0.408935,16.081154 2.805757,21.563924 2.338054,3.98763 7.754635,9.71423 17.620318,18.62882 1.596178,1.4423 4.041001,3.69393 5.432938,5.00362 1.391937,1.30968 3.955504,3.6893 5.696815,5.28804 1.741311,1.59874 4.178051,3.87778 5.414978,5.06454 1.236927,1.18676 3.212626,2.97432 4.390442,3.97237 1.17782,0.99805 3.11127,2.67601 4.29657,3.72882 4.63012,4.11255 12.23624,9.19317 17.34987,11.5891 6.07445,2.84611 10.0247,3.67781 17.48707,3.68181 5.88966,0.003 7.54048,-0.24343 12.7,-1.89706 3.49854,-1.12128 5.19368,-1.9505 8.71092,-4.26117 8.22945,-5.40637 14.28557,-14.68429 15.90435,-24.36533 0.69544,-4.15904 0.43213,-12.88584 -0.49964,-16.55946 -1.93072,-7.6121 -5.22529,-13.76892 -9.7378,-18.1978 -2.81761,-2.76537 -5.62726,-5.03698 -7.93293,-6.41378 -2.62075,-1.56494 -2.60844,-1.54791 -2.60844,-3.60756 0,-1.07726 0.11148,-1.81109 0.27512,-1.81109 1.50156,0 8.55851,5.29361 12.49965,9.3763 4.80724,4.9799 8.54221,11.58546 10.63591,18.8104 1.54792,5.34154 1.94814,13.34326 0.94206,18.83504 -0.74806,4.08337 -1.65643,6.81064 -3.48181,10.45364 -2.52125,5.03181 -4.78941,8.05748 -9.00019,12.00607 -5.9459,5.57566 -12.89749,8.99996 -21.13116,10.40903 -3.151,0.53924 -9.552,0.90533 -11.24479,0.64311 z m -77.948983,-0.62026 c -9.403945,-1.7152 -19.616306,-8.10358 -25.55326,-15.98495 -1.978188,-2.62607 -4.847517,-8.08034 -5.723331,-10.8794 -2.606365,-8.32983 -2.609877,-18.36124 -0.0092,-26.40889 2.418616,-7.48441 7.392715,-15.04816 13.109318,-19.9344 3.49163,-2.98445 9.883842,-7.00187 10.36897,-6.51674 0.09011,0.0901 0.163832,0.83645 0.163832,1.65852 0,1.46299 -0.02198,1.50705 -1.036302,2.07713 -9.266265,5.20793 -16.480214,14.07599 -19.440867,23.89851 -1.211135,4.01817 -1.589085,6.85338 -1.599229,11.99671 -0.01057,5.35788 0.233316,7.06741 1.622553,11.37347 1.684396,5.22092 4.895388,10.65866 8.401947,14.22849 3.806673,3.87536 9.77523,7.91845 13.903981,9.41855 6.391762,2.32232 13.826944,3.08873 19.711458,2.03185 4.252564,-0.76378 10.431619,-2.77156 13.972489,-4.54012 2.626769,-1.312 6.454957,-3.80751 8.443007,-5.5038 l 2.000358,-1.7068 1.087385,0.79967 c 0.598061,0.43982 1.087384,0.90013 1.087384,1.02291 0,0.38417 -4.509037,3.95158 -7.276041,5.75658 -5.444577,3.55165 -11.240629,5.92541 -17.065624,6.9892 -4.270631,0.77992 -12.494826,0.8936 -16.168782,0.22351 z m 4.130241,-11.13482 c -4.967039,-0.77616 -10.388635,-3.05992 -14.336316,-6.03894 -5.65602,-4.26818 -9.459779,-10.40313 -10.821075,-17.45293 -1.677283,-8.6862 1.858856,-20.58633 8.058717,-27.11991 1.346798,-1.41929 4.845195,-4.40837 5.159526,-4.40837 0.157502,0 0.95894,2.71362 0.95894,3.24691 0,0.21303 -0.705811,0.91054 -1.568468,1.55001 -1.850351,1.37162 -4.038722,3.79759 -4.822023,5.34558 -0.306777,0.60626 -0.77222,1.4069 -1.034318,1.77921 -0.670352,0.95222 -2.568984,5.80192 -3.089479,7.89149 -0.320114,1.28512 -0.439972,3.01614 -0.450957,6.51284 -0.01407,4.47727 0.02973,4.91304 0.731341,7.27604 0.918732,3.09428 2.334996,5.77926 4.524886,8.57838 1.924242,2.45957 3.418276,3.78287 6.429046,5.69436 4.743953,3.01185 9.100175,4.12658 15.287263,3.91189 2.994102,-0.10389 4.160636,-0.26476 6.085416,-0.83921 4.949045,-1.47703 9.649408,-3.93586 12.377357,-6.47477 2.617798,-2.4364 3.029112,-2.51282 3.937812,-0.73162 l 0.558313,1.09439 -1.425283,1.28426 c -2.688789,2.42275 -4.869441,3.89057 -8.304449,5.58981 -4.850137,2.39928 -8.377123,3.33125 -13.096874,3.46069 -1.964532,0.0539 -4.28625,-0.0137 -5.159375,-0.15011 z m 72.495832,-0.0155 c -4.15097,-0.59816 -9.01889,-2.52841 -13.09688,-5.19323 -6.13735,-4.01053 -10.90913,-7.97907 -19.69423,-16.3791 -3.065412,-2.93105 -7.895193,-7.37648 -10.732849,-9.87874 -16.433222,-14.49089 -20.17536,-18.3752 -22.486637,-23.34091 -1.168521,-2.51054 -1.590445,-4.5007 -1.590445,-7.50195 0,-3.2802 0.628778,-5.93981 2.144736,-9.071784 0.849267,-1.754582 1.544776,-2.702475 3.238706,-4.413953 2.593131,-2.619994 4.736198,-4.047918 7.652524,-5.098873 5.835078,-2.102784 9.928485,-1.69961 16.778942,1.652619 2.134029,1.044274 3.757953,2.031968 4.382483,2.665495 0.54571,0.55356 0.99219,1.079785 0.99219,1.169388 0,0.0896 -1.04765,0.07921 -2.328113,-0.0231 -2.255544,-0.180215 -3.463523,-0.518896 -6.800011,-1.90652 -2.193169,-0.912126 -6.097308,-1.350415 -8.746656,-0.981925 -5.434104,0.755814 -10.569321,4.500037 -12.50883,9.120523 -1.491002,3.55202 -1.720416,7.90936 -0.6051,11.49288 1.509583,4.85029 5.153657,8.66079 26.225401,27.4231 3.268659,2.91042 7.197819,6.48229 8.731459,7.9375 8.01051,7.6008 11.57723,10.57142 17.29657,14.40579 6.34625,4.25466 14.15653,5.92051 21.11229,4.50302 8.92702,-1.81922 14.40892,-5.44788 18.32669,-12.13111 1.35982,-2.31968 2.58947,-5.86274 3.07064,-8.84756 0.66971,-4.15446 -0.10513,-10.26406 -1.87219,-14.76219 -1.13283,-2.88369 -3.74747,-6.84543 -6.27351,-9.50574 -1.34606,-1.41761 -2.44739,-2.73123 -2.44739,-2.91915 0,-0.18792 0.1923,-1.02703 0.42733,-1.86469 l 0.42734,-1.52301 1.62318,1.33428 c 4.31887,3.55015 8.0778,9.47326 10.05433,15.84303 1.28493,4.14096 1.57471,5.9381 1.55544,9.6465 -0.0181,3.4748 -0.39816,5.65322 -1.70431,9.76745 -1.52627,4.80759 -5.79451,10.20914 -10.43921,13.21104 -4.06556,2.6276 -9.05336,4.58845 -13.19344,5.18674 -2.18498,0.31575 -7.27823,0.30729 -9.52045,-0.0158 z m -26.6526,-26.41519 c -0.83079,-0.7493 -0.84878,-0.80719 -0.46719,-1.50292 0.21828,-0.39797 3.19484,-3.32759 6.61458,-6.51025 16.5944,-15.44395 17.41762,-16.30376 19.32065,-20.17939 1.65516,-3.3708 2.1106,-5.16925 2.1106,-8.33437 0,-4.68982 -1.04181,-7.143566 -4.5078,-10.617042 -3.55309,-3.560762 -6.65396,-4.82212 -11.76408,-4.785326 -2.43711,0.01755 -3.78395,0.324258 -7.76151,1.7675 -1.31067,0.475568 -2.82838,0.77522 -4.67508,0.923028 -1.50391,0.120372 -2.86302,0.298363 -3.02025,0.395534 -0.62094,0.383767 -0.22565,-0.220954 0.97091,-1.485277 1.6502,-1.743666 4.53523,-3.117971 8.74215,-4.16439 4.39647,-1.093569 6.78325,-1.269832 9.56429,-0.706322 4.70887,0.95414 7.83806,2.683563 11.15159,6.16319 3.15006,3.307975 4.67638,6.944485 4.92798,11.741075 0.15869,3.0254 -0.22555,5.45474 -1.35826,8.58759 -1.30323,3.60448 -5.04428,7.82451 -15.11593,17.05127 -2.46212,2.25557 -6.08564,5.65707 -8.05227,7.55888 -3.75922,3.63531 -5.17854,4.87654 -5.5762,4.87654 -0.13206,0 -0.62894,-0.3507 -1.10418,-0.77932 z m -7.10966,-16.88966 c -0.930548,-0.84117 -3.061126,-2.61789 -4.734616,-3.94826 -4.431851,-3.52317 -6.527867,-5.84418 -7.875587,-8.72097 -0.650684,-1.38893 -0.723371,-1.83653 -0.723371,-4.4545 0,-2.63392 0.06859,-3.05007 0.721945,-4.38043 0.913354,-1.85976 3.218617,-4.41991 5.020709,-5.57581 1.32209,-0.848018 1.507119,-0.891023 3.776896,-0.877831 2.743217,0.01594 4.500504,0.665984 5.466044,2.021951 l 0.55758,0.78306 0.82737,-0.77169 c 1.2708,-1.185281 2.72508,-1.729221 4.97678,-1.861456 3.60465,-0.21169 6.30782,1.371236 8.62616,5.051326 1.45089,2.30312 1.72711,3.31621 1.59291,5.84242 -0.10095,1.90035 -0.2481,2.41058 -1.26856,4.39867 -0.90238,1.75805 -1.65884,2.74802 -3.46547,4.53526 -3.00645,2.97418 -10.81423,9.48765 -11.37297,9.48765 -0.23865,0 -1.19527,-0.68822 -2.12582,-1.52939 z m 8.97699,-8.19841 c 3.28356,-2.68041 4.38454,-4.13597 5.22636,-6.90959 0.7782,-2.56397 0.12951,-5.46489 -1.62631,-7.2728 -2.37755,-2.4481 -5.17976,-2.53731 -8.88487,-0.28286 -0.8223,0.50035 -1.61164,0.90972 -1.7541,0.90972 -0.14246,0 -0.95462,-0.54015 -1.8048,-1.20033 -1.795817,-1.39449 -2.269388,-1.551 -4.206881,-1.39033 -2.140181,0.17748 -3.752522,1.27618 -4.757993,3.24223 -0.70425,1.37705 -0.797712,1.82589 -0.797028,3.82764 6.86e-4,2.01084 0.09619,2.46279 0.843265,3.99044 0.88914,1.81816 3.350339,4.40293 7.098049,7.45443 1.016118,0.82735 2.313408,1.98336 2.882848,2.5689 l 1.03536,1.06463 2.35749,-2.17203 c 1.29663,-1.19462 3.2715,-2.91814 4.38861,-3.83005 z"
       id="path1"
       sodipodi:nodetypes="ssssssssssscssssssssscsssssssssssssssssssssssscsssssssssssssssssscssscsssssssscsssssscssssssssssssssssscssscsssssssssssssssssscsssssssscsscssssssssssssssssssssssssssssssssscsssssssssssssssssssscss" /><text
       xml:space="preserve"
       style="font-size:3.175px;fill:#000000;stroke-width:0.264583"
       x="186.76778"
       y="169.18727"
       id="text1"><tspan
         sodipodi:role="line"
         id="tspan1"
         style="font-style:normal;font-variant:normal;font-weight:normal;font-stretch:normal;font-size:105.833px;font-family:'Excalibur Nouveau';-inkscape-font-specification:'Excalibur Nouveau, Normal';font-variant-ligatures:normal;font-variant-caps:normal;font-variant-numeric:normal;font-variant-east-asian:normal;stroke-width:0.264583"
         x="186.76778"
         y="169.18727">RetroMeet</tspan></text><path
       style="fill:#d5242b;fill-opacity:1"
       d="m 109.78903,118.39934 c 3.28356,-2.68041 4.38454,-4.13597 5.22636,-6.90959 0.7782,-2.56397 0.12951,-5.46489 -1.62631,-7.2728 -2.37755,-2.4481 -5.17976,-2.53731 -8.88487,-0.28286 -0.8223,0.50035 -1.61164,0.90972 -1.7541,0.90972 -0.14246,0 -0.95462,-0.54015 -1.8048,-1.20033 -1.795817,-1.39449 -2.269388,-1.551 -4.206881,-1.39033 -2.140181,0.17748 -3.752522,1.27618 -4.757993,3.24223 -0.70425,1.37705 -0.797712,1.82589 -0.797028,3.82764 6.86e-4,2.01084 0.09619,2.46279 0.843265,3.99044 0.88914,1.81816 3.350339,4.40293 7.098049,7.45443 1.016118,0.82735 2.313408,1.98336 2.882848,2.5689 l 1.03536,1.06463 2.35749,-2.17203 c 1.29663,-1.19462 3.2715,-2.91814 4.38861,-3.83005 z"
       id="path14" /></g></svg>
